<svg width="192" height="192" viewBox="0 0 192 192" fill="none" xmlns="http://www.w3.org/2000/svg">
<rect width="192" height="192" rx="30" fill="#0A0A0A"/>
<path d="M97.2873 167.265C81.3426 167.265 67.6658 164.379 56.2571 158.606C44.8484 152.695 36.12 144.448 30.072 133.864C24.024 123.143 21 110.565 21 96.1327C21 81.7 24.024 69.1916 30.072 58.6076C36.12 47.8862 44.8484 39.6389 56.2571 33.8658C67.6658 27.9553 81.3426 25 97.2873 25C112.82 25 126.084 27.3367 137.08 32.0102C148.214 36.6836 156.736 43.4189 162.647 52.216C168.557 61.0131 171.513 71.5971 171.513 83.968V87.4731H128.215V83.968C128.215 76.1331 126.015 70.5662 121.617 67.2673C117.218 63.8309 109.315 62.1127 97.9058 62.1127C88.5589 62.1127 81.2738 63.0749 76.0505 64.9993C70.9647 66.7862 67.3909 70.1538 65.3291 75.1022C63.2673 79.9131 62.2364 86.9233 62.2364 96.1327C62.2364 105.205 63.2673 112.215 65.3291 117.163C67.3909 122.112 70.9647 125.548 76.0505 127.472C81.2738 129.259 88.5589 130.153 97.9058 130.153C109.315 130.153 117.218 128.503 121.617 125.204C126.015 121.768 128.215 116.132 128.215 108.297V104.792H171.513V108.297C171.513 120.531 168.557 131.115 162.647 140.049C156.736 148.847 148.214 155.582 137.08 160.255C126.084 164.929 112.82 167.265 97.2873 167.265Z" fill="#FFFFE3"/>
</svg>
