<svg width="1066" height="104" viewBox="0 0 1066 104" fill="none" xmlns="http://www.w3.org/2000/svg">
<path d="M971.825 102H964.626L1010.52 1.521H1019.66L1065.56 102H1058.36L1020.56 20.417L1015.17 8.11961H1014.57L1009.47 20.417L971.825 102ZM1045.61 70.0567H984.122V63.908H1045.61V70.0567Z" fill="#0a0a0a"/>
<path d="M909.43 102H871.488V95.8513H909.43C918.628 95.8513 926.276 94.1516 932.375 90.7523C938.474 87.3531 943.073 82.3541 946.172 75.7555C949.272 69.1569 950.821 61.1585 950.821 51.7605C950.821 42.2625 949.272 34.2642 946.172 27.7655C943.073 21.1669 938.474 16.1679 932.375 12.7686C926.276 9.36935 918.628 7.66971 909.43 7.66971H871.488V1.521H909.43C919.428 1.521 927.976 3.62056 935.075 7.81968C942.273 11.9188 947.822 17.7176 951.721 25.216C955.72 32.7145 957.72 41.5626 957.72 51.7605C957.72 61.9584 955.72 70.8065 951.721 78.305C947.822 85.8034 942.273 91.6522 935.075 95.8513C927.976 99.9504 919.428 102 909.43 102ZM874.337 102H867.589V1.521H874.337V102Z" fill="#0a0a0a"/>
<path d="M762.396 102H755.198L801.088 1.521H810.236L856.127 102H848.928L811.136 20.417L805.737 8.11961H805.137L800.038 20.417L762.396 102ZM836.181 70.0567H774.694V63.908H836.181V70.0567Z" fill="#0a0a0a"/>
<path d="M710.28 103.5C700.582 103.5 692.583 102.05 686.285 99.1506C680.086 96.1512 675.537 92.152 672.638 87.1531C669.738 82.1541 668.288 76.7053 668.288 70.8065V69.9067H675.037V71.7063C675.037 77.1052 676.237 81.7042 678.636 85.5034C681.136 89.2027 684.985 92.0521 690.184 94.0517C695.383 96.0512 702.081 97.051 710.28 97.051C717.278 97.051 723.077 96.3512 727.676 94.9515C732.375 93.4518 735.924 91.2522 738.324 88.3528C740.723 85.4535 741.923 81.8042 741.923 77.4051C741.923 71.0065 739.923 66.3574 735.924 63.458C732.025 60.5586 726.026 58.2091 717.928 56.4095L698.882 52.5103C693.683 51.3106 688.784 49.7609 684.185 47.8613C679.686 45.9617 676.087 43.3123 673.387 39.913C670.688 36.4137 669.338 31.8646 669.338 26.2658C669.338 23.0665 670.038 19.9171 671.438 16.8178C672.937 13.6185 675.237 10.7691 678.336 8.26958C681.436 5.7701 685.435 3.77051 690.334 2.27083C695.233 0.771143 701.082 0.0213013 707.88 0.0213013C717.078 0.0213013 724.577 1.52098 730.375 4.52036C736.174 7.51973 740.423 11.5189 743.123 16.5178C745.922 21.4168 747.322 26.8157 747.322 32.7145V33.6143H740.573V31.8147C740.573 26.4158 739.374 21.8667 736.974 18.1675C734.675 14.3683 731.075 11.5189 726.176 9.61929C721.377 7.61971 715.229 6.61992 707.73 6.61992C700.632 6.61992 694.733 7.31977 690.034 8.71948C685.335 10.1192 681.836 12.2187 679.536 15.0182C677.237 17.8176 676.087 21.3168 676.087 25.516C676.087 29.915 676.937 33.4143 678.636 36.0138C680.436 38.6132 683.135 40.7128 686.735 42.3125C690.434 43.8121 695.083 45.2119 700.682 46.5116L719.578 50.4108C725.077 51.5105 730.026 53.1102 734.425 55.2098C738.824 57.2093 742.273 59.9588 744.772 63.458C747.372 66.8573 748.672 71.2564 748.672 76.6553C748.672 81.1543 747.272 85.5034 744.473 89.7026C741.773 93.8017 737.624 97.151 732.025 99.7505C726.426 102.25 719.178 103.5 710.28 103.5Z" fill="#0a0a0a"/>
<path d="M607.962 103.5C598.464 103.5 589.966 101.4 582.468 97.201C574.969 92.9019 569.071 86.9031 564.771 79.2048C560.472 71.4064 558.323 62.2583 558.323 51.7605C558.323 41.2627 560.472 32.1646 564.771 24.4662C569.071 16.6678 574.969 10.6691 582.468 6.46995C589.966 2.17085 598.464 0.0213013 607.962 0.0213013C617.66 0.0213013 626.209 2.17085 633.607 6.46995C641.006 10.6691 646.854 16.6678 651.153 24.4662C655.452 32.1646 657.602 41.2627 657.602 51.7605C657.602 62.2583 655.452 71.4064 651.153 79.2048C646.854 86.9031 641.006 92.9019 633.607 97.201C626.209 101.4 617.66 103.5 607.962 103.5ZM607.962 96.901C616.861 96.901 624.459 95.1514 630.758 91.6521C637.156 88.1529 642.055 83.0539 645.455 76.3553C648.954 69.5568 650.703 61.3585 650.703 51.7605C650.703 42.0625 648.954 33.8642 645.455 27.1656C642.055 20.467 637.156 15.3681 630.758 11.8688C624.459 8.36955 616.861 6.61992 607.962 6.61992C599.164 6.61992 591.566 8.36955 585.167 11.8688C578.769 15.3681 573.82 20.467 570.32 27.1656C566.921 33.8642 565.221 42.0625 565.221 51.7605C565.221 61.3585 566.921 69.5568 570.32 76.3553C573.82 83.0539 578.769 88.1529 585.167 91.6521C591.566 95.1514 599.164 96.901 607.962 96.901Z" fill="#0a0a0a"/>
<path d="M513.029 67.8071H472.537V61.6584H512.729C522.427 61.6584 529.875 59.5089 535.074 55.2098C540.273 50.8107 542.873 43.9621 542.873 34.6641C542.873 25.466 540.273 18.6674 535.074 14.2683C529.875 9.86925 522.427 7.66971 512.729 7.66971H472.537V1.521H513.029C520.127 1.521 526.426 2.82072 531.925 5.42018C537.424 8.01964 541.723 11.8188 544.822 16.8178C548.022 21.7168 549.621 27.6655 549.621 34.6641C549.621 41.6626 548.022 47.6114 544.822 52.5103C541.723 57.4093 537.424 61.2085 531.925 63.908C526.426 66.5074 520.127 67.8071 513.029 67.8071ZM475.687 102H468.938V1.521H475.687V102Z" fill="#0a0a0a"/>
<path d="M373.545 102H345.351V1.521H373.545V102ZM434.582 102H352.999V76.6553H434.582V102ZM432.333 64.0579H352.999V38.8632H432.333V64.0579ZM434.582 26.8657H352.999V1.521H434.582V26.8657Z" fill="#0a0a0a"/>
<path d="M341.535 102H307.792L284.397 66.3075H255.603V38.8632H284.097L308.542 1.521H342.285L307.492 50.8607L341.535 102ZM263.851 102H235.657V1.521H263.851V102Z" fill="#0a0a0a"/>
<path d="M171.9 103.5C160.303 103.5 150.305 101.4 141.907 97.201C133.608 92.9019 127.26 86.9031 122.861 79.2048C118.461 71.4064 116.262 62.2583 116.262 51.7605C116.262 41.2627 118.461 32.1646 122.861 24.4662C127.26 16.6678 133.608 10.6691 141.907 6.46995C150.305 2.17085 160.303 0.0213013 171.9 0.0213013C183.898 0.0213013 194.046 2.17085 202.344 6.46995C210.742 10.6691 217.141 16.6678 221.54 24.4662C225.939 32.1646 228.139 41.2627 228.139 51.7605C228.139 62.2583 225.939 71.4064 221.54 79.2048C217.141 86.9031 210.742 92.9019 202.344 97.201C194.046 101.4 183.898 103.5 171.9 103.5ZM171.9 76.5053C178.699 76.5053 183.998 75.8555 187.797 74.5557C191.596 73.156 194.246 70.6565 195.745 67.0573C197.345 63.458 198.145 58.3591 198.145 51.7605C198.145 45.0619 197.345 39.9629 195.745 36.4637C194.246 32.8644 191.596 30.4149 187.797 29.1152C183.998 27.7155 178.699 27.0157 171.9 27.0157C165.102 27.0157 159.853 27.7155 156.154 29.1152C152.454 30.4149 149.855 32.8644 148.355 36.4637C146.956 39.9629 146.256 45.0619 146.256 51.7605C146.256 58.3591 146.956 63.458 148.355 67.0573C149.855 70.6565 152.454 73.156 156.154 74.5557C159.853 75.8555 165.102 76.5053 171.9 76.5053Z" fill="#0a0a0a"/>
<path d="M56.3448 103.5C44.7473 103.5 34.7994 101.4 26.5011 97.201C18.2028 92.9019 11.8541 86.9031 7.45507 79.2048C3.05599 71.4064 0.856445 62.2583 0.856445 51.7605C0.856445 41.2627 3.05599 32.1646 7.45507 24.4662C11.8541 16.6678 18.2028 10.6691 26.5011 6.46995C34.7994 2.17085 44.7473 0.0213013 56.3448 0.0213013C67.6425 0.0213013 77.2905 1.72094 85.2888 5.12023C93.3871 8.51952 99.5858 13.4185 103.885 19.8172C108.184 26.2158 110.334 33.9142 110.334 42.9123V45.4618H78.8401V42.9123C78.8401 37.2135 77.2405 33.1644 74.0412 30.7649C70.8418 28.2654 65.093 27.0157 56.7948 27.0157C49.9962 27.0157 44.6973 27.7155 40.8981 29.1152C37.1988 30.4149 34.5994 32.8644 33.0997 36.4637C31.6 39.9629 30.8502 45.0619 30.8502 51.7605C30.8502 58.3591 31.6 63.458 33.0997 67.0573C34.5994 70.6565 37.1988 73.156 40.8981 74.5557C44.6973 75.8555 49.9962 76.5053 56.7948 76.5053C65.093 76.5053 70.8418 75.3056 74.0412 72.9061C77.2405 70.4066 78.8401 66.3074 78.8401 60.6086V58.0592H110.334V60.6086C110.334 69.5068 108.184 77.2052 103.885 83.7038C99.5858 90.1025 93.3871 95.0015 85.2888 98.4007C77.2905 101.8 67.6425 103.5 56.3448 103.5Z" fill="#0a0a0a"/>
</svg>
